<svg xmlns="http://www.w3.org/2000/svg" viewBox="0 0 1440 1440" fill-rule="evenodd" stroke-linejoin="round" stroke-miterlimit="2" xmlns:v="https://vecta.io/nano"><path d="M694.55 230.113l330.917 330.917H694.55V230.113zm-94.548 283.643c0 78.475 63.347 141.821 141.821 141.821h283.643v567.286c0 78.475-63.347 141.821-141.821 141.821H174.538c-39.237 0-72.802-13.709-100.22-41.601-27.892-27.419-41.601-60.983-41.601-100.22V371.934c0-78.475 63.347-141.821 141.821-141.821h425.464v283.643z"/><g fill="#0098ff"><path d="M1257.671 1339.081L822.696 904.106l129.669-117.311 428.796 428.796c34.188 34.188 34.147 89.425.041 123.531s-89.343 34.147-123.531-.041z"/><path d="M1111.45 689.065c-103.263 347.255-429.929 676.232-429.929 676.232s-325.538-328.44-429.338-674.62c-17.524-48.917-27.576-103.746-27.576-158.576 0-253.722 204.59-456.914 456.914-456.914s456.914 203.192 456.914 456.914c0 54.292-9.837 108.584-26.985 156.963zM681.521 343.96c-103.908 0-188.141 84.395-188.141 188.141s84.233 188.141 188.141 188.141 188.141-84.395 188.141-188.141S785.429 343.96 681.521 343.96z"/></g></svg>